<mxfile host="app.diagrams.net" agent="Mozilla/5.0 (Windows NT 10.0; Win64; x64) AppleWebKit/537.36 (KHTML, like Gecko) Chrome/134.0.0.0 Safari/537.36" version="26.2.4">
  <diagram id="prtHgNgQTEPvFCAcTncT" name="Page-1">
    <mxGraphModel dx="1562" dy="1045" grid="1" gridSize="10" guides="1" tooltips="1" connect="1" arrows="1" fold="1" page="1" pageScale="1" pageWidth="827" pageHeight="1169" math="0" shadow="0">
      <root>
        <mxCell id="0" />
        <mxCell id="1" parent="0" />
        <mxCell id="N1VjgT0BrK08xfT6yM9E-3" value="" style="edgeStyle=orthogonalEdgeStyle;rounded=0;orthogonalLoop=1;jettySize=auto;html=1;" edge="1" parent="1" source="N1VjgT0BrK08xfT6yM9E-1" target="N1VjgT0BrK08xfT6yM9E-2">
          <mxGeometry relative="1" as="geometry">
            <Array as="points">
              <mxPoint x="520" y="360" />
              <mxPoint x="160" y="360" />
            </Array>
          </mxGeometry>
        </mxCell>
        <mxCell id="N1VjgT0BrK08xfT6yM9E-6" value="" style="edgeStyle=orthogonalEdgeStyle;rounded=0;orthogonalLoop=1;jettySize=auto;html=1;" edge="1" parent="1" source="N1VjgT0BrK08xfT6yM9E-1" target="N1VjgT0BrK08xfT6yM9E-4">
          <mxGeometry relative="1" as="geometry">
            <Array as="points">
              <mxPoint x="520" y="340" />
              <mxPoint x="520" y="340" />
            </Array>
          </mxGeometry>
        </mxCell>
        <mxCell id="N1VjgT0BrK08xfT6yM9E-8" value="" style="edgeStyle=orthogonalEdgeStyle;rounded=0;orthogonalLoop=1;jettySize=auto;html=1;entryX=0.5;entryY=0;entryDx=0;entryDy=0;" edge="1" parent="1" target="N1VjgT0BrK08xfT6yM9E-7">
          <mxGeometry relative="1" as="geometry">
            <mxPoint x="520" y="320" as="sourcePoint" />
            <mxPoint x="770" y="390" as="targetPoint" />
            <Array as="points">
              <mxPoint x="520" y="360" />
              <mxPoint x="860" y="360" />
            </Array>
          </mxGeometry>
        </mxCell>
        <mxCell id="N1VjgT0BrK08xfT6yM9E-1" value="ASU ROAR" style="rounded=1;whiteSpace=wrap;html=1;" vertex="1" parent="1">
          <mxGeometry x="460" y="260" width="120" height="60" as="geometry" />
        </mxCell>
        <mxCell id="N1VjgT0BrK08xfT6yM9E-10" value="" style="edgeStyle=orthogonalEdgeStyle;rounded=0;orthogonalLoop=1;jettySize=auto;html=1;" edge="1" parent="1" source="N1VjgT0BrK08xfT6yM9E-2" target="N1VjgT0BrK08xfT6yM9E-9">
          <mxGeometry relative="1" as="geometry">
            <Array as="points">
              <mxPoint x="160" y="540" />
            </Array>
          </mxGeometry>
        </mxCell>
        <mxCell id="N1VjgT0BrK08xfT6yM9E-12" value="" style="edgeStyle=orthogonalEdgeStyle;rounded=0;orthogonalLoop=1;jettySize=auto;html=1;" edge="1" parent="1" source="N1VjgT0BrK08xfT6yM9E-2" target="N1VjgT0BrK08xfT6yM9E-11">
          <mxGeometry relative="1" as="geometry">
            <Array as="points">
              <mxPoint x="160" y="630" />
            </Array>
          </mxGeometry>
        </mxCell>
        <mxCell id="N1VjgT0BrK08xfT6yM9E-34" value="" style="edgeStyle=orthogonalEdgeStyle;rounded=0;orthogonalLoop=1;jettySize=auto;html=1;" edge="1" parent="1" source="N1VjgT0BrK08xfT6yM9E-2" target="N1VjgT0BrK08xfT6yM9E-33">
          <mxGeometry relative="1" as="geometry">
            <Array as="points">
              <mxPoint x="160" y="1060" />
            </Array>
          </mxGeometry>
        </mxCell>
        <mxCell id="N1VjgT0BrK08xfT6yM9E-36" value="" style="edgeStyle=orthogonalEdgeStyle;rounded=0;orthogonalLoop=1;jettySize=auto;html=1;" edge="1" parent="1" source="N1VjgT0BrK08xfT6yM9E-2" target="N1VjgT0BrK08xfT6yM9E-35">
          <mxGeometry relative="1" as="geometry">
            <Array as="points">
              <mxPoint x="160" y="1390" />
            </Array>
          </mxGeometry>
        </mxCell>
        <mxCell id="N1VjgT0BrK08xfT6yM9E-38" value="" style="edgeStyle=orthogonalEdgeStyle;rounded=0;orthogonalLoop=1;jettySize=auto;html=1;" edge="1" parent="1" source="N1VjgT0BrK08xfT6yM9E-2" target="N1VjgT0BrK08xfT6yM9E-37">
          <mxGeometry relative="1" as="geometry">
            <Array as="points">
              <mxPoint x="160" y="970" />
            </Array>
          </mxGeometry>
        </mxCell>
        <mxCell id="N1VjgT0BrK08xfT6yM9E-2" value="Rover" style="whiteSpace=wrap;html=1;rounded=1;" vertex="1" parent="1">
          <mxGeometry x="100" y="390" width="120" height="60" as="geometry" />
        </mxCell>
        <mxCell id="N1VjgT0BrK08xfT6yM9E-60" value="" style="edgeStyle=orthogonalEdgeStyle;rounded=0;orthogonalLoop=1;jettySize=auto;html=1;" edge="1" parent="1" source="N1VjgT0BrK08xfT6yM9E-4" target="N1VjgT0BrK08xfT6yM9E-59">
          <mxGeometry relative="1" as="geometry">
            <Array as="points">
              <mxPoint x="520" y="530" />
            </Array>
          </mxGeometry>
        </mxCell>
        <mxCell id="N1VjgT0BrK08xfT6yM9E-62" value="" style="edgeStyle=orthogonalEdgeStyle;rounded=0;orthogonalLoop=1;jettySize=auto;html=1;" edge="1" parent="1" source="N1VjgT0BrK08xfT6yM9E-4" target="N1VjgT0BrK08xfT6yM9E-61">
          <mxGeometry relative="1" as="geometry">
            <Array as="points">
              <mxPoint x="520" y="1140" />
              <mxPoint x="520" y="1140" />
            </Array>
          </mxGeometry>
        </mxCell>
        <mxCell id="N1VjgT0BrK08xfT6yM9E-64" value="" style="edgeStyle=orthogonalEdgeStyle;rounded=0;orthogonalLoop=1;jettySize=auto;html=1;" edge="1" parent="1" source="N1VjgT0BrK08xfT6yM9E-4" target="N1VjgT0BrK08xfT6yM9E-63">
          <mxGeometry relative="1" as="geometry">
            <Array as="points">
              <mxPoint x="520" y="1110" />
            </Array>
          </mxGeometry>
        </mxCell>
        <mxCell id="N1VjgT0BrK08xfT6yM9E-66" value="" style="edgeStyle=orthogonalEdgeStyle;rounded=0;orthogonalLoop=1;jettySize=auto;html=1;" edge="1" parent="1" source="N1VjgT0BrK08xfT6yM9E-4" target="N1VjgT0BrK08xfT6yM9E-65">
          <mxGeometry relative="1" as="geometry">
            <Array as="points">
              <mxPoint x="520" y="870" />
            </Array>
          </mxGeometry>
        </mxCell>
        <mxCell id="N1VjgT0BrK08xfT6yM9E-4" value="6-DOF Robotic Manipulator" style="rounded=1;whiteSpace=wrap;html=1;" vertex="1" parent="1">
          <mxGeometry x="460" y="390" width="120" height="60" as="geometry" />
        </mxCell>
        <mxCell id="N1VjgT0BrK08xfT6yM9E-84" value="" style="edgeStyle=orthogonalEdgeStyle;rounded=0;orthogonalLoop=1;jettySize=auto;html=1;" edge="1" parent="1" source="N1VjgT0BrK08xfT6yM9E-7" target="N1VjgT0BrK08xfT6yM9E-83">
          <mxGeometry relative="1" as="geometry">
            <Array as="points">
              <mxPoint x="860" y="500" />
            </Array>
          </mxGeometry>
        </mxCell>
        <mxCell id="N1VjgT0BrK08xfT6yM9E-86" value="" style="edgeStyle=orthogonalEdgeStyle;rounded=0;orthogonalLoop=1;jettySize=auto;html=1;" edge="1" parent="1" source="N1VjgT0BrK08xfT6yM9E-7" target="N1VjgT0BrK08xfT6yM9E-85">
          <mxGeometry relative="1" as="geometry">
            <Array as="points">
              <mxPoint x="860" y="580" />
            </Array>
          </mxGeometry>
        </mxCell>
        <mxCell id="N1VjgT0BrK08xfT6yM9E-88" value="" style="edgeStyle=orthogonalEdgeStyle;rounded=0;orthogonalLoop=1;jettySize=auto;html=1;" edge="1" parent="1" source="N1VjgT0BrK08xfT6yM9E-7" target="N1VjgT0BrK08xfT6yM9E-87">
          <mxGeometry relative="1" as="geometry">
            <Array as="points">
              <mxPoint x="860" y="650" />
            </Array>
          </mxGeometry>
        </mxCell>
        <mxCell id="N1VjgT0BrK08xfT6yM9E-90" value="" style="edgeStyle=orthogonalEdgeStyle;rounded=0;orthogonalLoop=1;jettySize=auto;html=1;entryX=0;entryY=0.5;entryDx=0;entryDy=0;" edge="1" parent="1" source="N1VjgT0BrK08xfT6yM9E-7" target="N1VjgT0BrK08xfT6yM9E-93">
          <mxGeometry relative="1" as="geometry" />
        </mxCell>
        <mxCell id="N1VjgT0BrK08xfT6yM9E-91" value="" style="edgeStyle=orthogonalEdgeStyle;rounded=0;orthogonalLoop=1;jettySize=auto;html=1;" edge="1" parent="1" source="N1VjgT0BrK08xfT6yM9E-7" target="N1VjgT0BrK08xfT6yM9E-89">
          <mxGeometry relative="1" as="geometry">
            <Array as="points">
              <mxPoint x="860" y="740" />
            </Array>
          </mxGeometry>
        </mxCell>
        <mxCell id="N1VjgT0BrK08xfT6yM9E-92" value="" style="edgeStyle=orthogonalEdgeStyle;rounded=0;orthogonalLoop=1;jettySize=auto;html=1;" edge="1" parent="1" source="N1VjgT0BrK08xfT6yM9E-7" target="N1VjgT0BrK08xfT6yM9E-89">
          <mxGeometry relative="1" as="geometry">
            <Array as="points">
              <mxPoint x="860" y="740" />
            </Array>
          </mxGeometry>
        </mxCell>
        <mxCell id="N1VjgT0BrK08xfT6yM9E-7" value="Drone" style="rounded=1;whiteSpace=wrap;html=1;" vertex="1" parent="1">
          <mxGeometry x="800" y="390" width="120" height="60" as="geometry" />
        </mxCell>
        <mxCell id="N1VjgT0BrK08xfT6yM9E-15" value="" style="edgeStyle=orthogonalEdgeStyle;rounded=0;orthogonalLoop=1;jettySize=auto;html=1;" edge="1" parent="1" source="N1VjgT0BrK08xfT6yM9E-9" target="N1VjgT0BrK08xfT6yM9E-13">
          <mxGeometry relative="1" as="geometry">
            <Array as="points">
              <mxPoint x="260" y="620" />
            </Array>
          </mxGeometry>
        </mxCell>
        <mxCell id="N1VjgT0BrK08xfT6yM9E-20" value="" style="edgeStyle=orthogonalEdgeStyle;rounded=0;orthogonalLoop=1;jettySize=auto;html=1;" edge="1" parent="1" source="N1VjgT0BrK08xfT6yM9E-9" target="N1VjgT0BrK08xfT6yM9E-19">
          <mxGeometry relative="1" as="geometry">
            <Array as="points">
              <mxPoint x="260" y="700" />
            </Array>
          </mxGeometry>
        </mxCell>
        <mxCell id="N1VjgT0BrK08xfT6yM9E-22" value="" style="edgeStyle=orthogonalEdgeStyle;rounded=0;orthogonalLoop=1;jettySize=auto;html=1;" edge="1" parent="1" source="N1VjgT0BrK08xfT6yM9E-9" target="N1VjgT0BrK08xfT6yM9E-21">
          <mxGeometry relative="1" as="geometry">
            <Array as="points">
              <mxPoint x="260" y="780" />
            </Array>
          </mxGeometry>
        </mxCell>
        <mxCell id="N1VjgT0BrK08xfT6yM9E-24" value="" style="edgeStyle=orthogonalEdgeStyle;rounded=0;orthogonalLoop=1;jettySize=auto;html=1;" edge="1" parent="1" source="N1VjgT0BrK08xfT6yM9E-9" target="N1VjgT0BrK08xfT6yM9E-23">
          <mxGeometry relative="1" as="geometry">
            <Array as="points">
              <mxPoint x="260" y="860" />
            </Array>
          </mxGeometry>
        </mxCell>
        <mxCell id="N1VjgT0BrK08xfT6yM9E-9" value="Mechanical Design" style="whiteSpace=wrap;html=1;rounded=1;" vertex="1" parent="1">
          <mxGeometry x="200" y="510" width="120" height="60" as="geometry" />
        </mxCell>
        <mxCell id="N1VjgT0BrK08xfT6yM9E-26" value="" style="edgeStyle=orthogonalEdgeStyle;rounded=0;orthogonalLoop=1;jettySize=auto;html=1;" edge="1" parent="1" source="N1VjgT0BrK08xfT6yM9E-11" target="N1VjgT0BrK08xfT6yM9E-25">
          <mxGeometry relative="1" as="geometry">
            <Array as="points">
              <mxPoint x="60" y="710" />
            </Array>
          </mxGeometry>
        </mxCell>
        <mxCell id="N1VjgT0BrK08xfT6yM9E-28" value="" style="edgeStyle=orthogonalEdgeStyle;rounded=0;orthogonalLoop=1;jettySize=auto;html=1;" edge="1" parent="1" source="N1VjgT0BrK08xfT6yM9E-11" target="N1VjgT0BrK08xfT6yM9E-27">
          <mxGeometry relative="1" as="geometry">
            <Array as="points">
              <mxPoint x="60" y="790" />
            </Array>
          </mxGeometry>
        </mxCell>
        <mxCell id="N1VjgT0BrK08xfT6yM9E-30" value="" style="edgeStyle=orthogonalEdgeStyle;rounded=0;orthogonalLoop=1;jettySize=auto;html=1;" edge="1" parent="1" source="N1VjgT0BrK08xfT6yM9E-11" target="N1VjgT0BrK08xfT6yM9E-29">
          <mxGeometry relative="1" as="geometry">
            <Array as="points">
              <mxPoint x="60" y="870" />
            </Array>
          </mxGeometry>
        </mxCell>
        <mxCell id="N1VjgT0BrK08xfT6yM9E-32" value="" style="edgeStyle=orthogonalEdgeStyle;rounded=0;orthogonalLoop=1;jettySize=auto;html=1;" edge="1" parent="1" source="N1VjgT0BrK08xfT6yM9E-11" target="N1VjgT0BrK08xfT6yM9E-31">
          <mxGeometry relative="1" as="geometry">
            <Array as="points">
              <mxPoint x="60" y="950" />
            </Array>
          </mxGeometry>
        </mxCell>
        <mxCell id="N1VjgT0BrK08xfT6yM9E-11" value="Autonomous System" style="whiteSpace=wrap;html=1;rounded=1;" vertex="1" parent="1">
          <mxGeometry y="600" width="120" height="60" as="geometry" />
        </mxCell>
        <mxCell id="N1VjgT0BrK08xfT6yM9E-13" value="Chassis" style="whiteSpace=wrap;html=1;rounded=1;" vertex="1" parent="1">
          <mxGeometry x="294" y="590" width="120" height="60" as="geometry" />
        </mxCell>
        <mxCell id="N1VjgT0BrK08xfT6yM9E-19" value="Suspension" style="whiteSpace=wrap;html=1;rounded=1;" vertex="1" parent="1">
          <mxGeometry x="294" y="670" width="120" height="60" as="geometry" />
        </mxCell>
        <mxCell id="N1VjgT0BrK08xfT6yM9E-21" value="Drilling Mechanism" style="whiteSpace=wrap;html=1;rounded=1;" vertex="1" parent="1">
          <mxGeometry x="294" y="750" width="120" height="60" as="geometry" />
        </mxCell>
        <mxCell id="N1VjgT0BrK08xfT6yM9E-23" value="Storage Mechanism" style="whiteSpace=wrap;html=1;rounded=1;" vertex="1" parent="1">
          <mxGeometry x="294" y="830" width="120" height="60" as="geometry" />
        </mxCell>
        <mxCell id="N1VjgT0BrK08xfT6yM9E-25" value="Perception" style="whiteSpace=wrap;html=1;rounded=1;" vertex="1" parent="1">
          <mxGeometry x="-100" y="680" width="120" height="60" as="geometry" />
        </mxCell>
        <mxCell id="N1VjgT0BrK08xfT6yM9E-27" value="Localization" style="whiteSpace=wrap;html=1;rounded=1;" vertex="1" parent="1">
          <mxGeometry x="-100" y="760" width="120" height="60" as="geometry" />
        </mxCell>
        <mxCell id="N1VjgT0BrK08xfT6yM9E-29" value="Path Planning" style="whiteSpace=wrap;html=1;rounded=1;" vertex="1" parent="1">
          <mxGeometry x="-100" y="840" width="120" height="60" as="geometry" />
        </mxCell>
        <mxCell id="N1VjgT0BrK08xfT6yM9E-31" value="Navigation Control" style="whiteSpace=wrap;html=1;rounded=1;" vertex="1" parent="1">
          <mxGeometry x="-100" y="920" width="120" height="60" as="geometry" />
        </mxCell>
        <mxCell id="N1VjgT0BrK08xfT6yM9E-49" value="" style="edgeStyle=orthogonalEdgeStyle;rounded=0;orthogonalLoop=1;jettySize=auto;html=1;" edge="1" parent="1" source="N1VjgT0BrK08xfT6yM9E-33" target="N1VjgT0BrK08xfT6yM9E-48">
          <mxGeometry relative="1" as="geometry">
            <Array as="points">
              <mxPoint x="60" y="1140" />
            </Array>
          </mxGeometry>
        </mxCell>
        <mxCell id="N1VjgT0BrK08xfT6yM9E-51" value="" style="edgeStyle=orthogonalEdgeStyle;rounded=0;orthogonalLoop=1;jettySize=auto;html=1;entryX=1;entryY=0.5;entryDx=0;entryDy=0;" edge="1" parent="1" target="N1VjgT0BrK08xfT6yM9E-50">
          <mxGeometry relative="1" as="geometry">
            <mxPoint x="60" y="1160" as="sourcePoint" />
            <mxPoint y="1240" as="targetPoint" />
            <Array as="points">
              <mxPoint x="60" y="1220" />
            </Array>
          </mxGeometry>
        </mxCell>
        <mxCell id="N1VjgT0BrK08xfT6yM9E-53" value="" style="edgeStyle=orthogonalEdgeStyle;rounded=0;orthogonalLoop=1;jettySize=auto;html=1;" edge="1" parent="1" source="N1VjgT0BrK08xfT6yM9E-33" target="N1VjgT0BrK08xfT6yM9E-52">
          <mxGeometry relative="1" as="geometry">
            <Array as="points">
              <mxPoint x="60" y="1300" />
            </Array>
          </mxGeometry>
        </mxCell>
        <mxCell id="N1VjgT0BrK08xfT6yM9E-33" value="Embedded System" style="whiteSpace=wrap;html=1;rounded=1;" vertex="1" parent="1">
          <mxGeometry y="1030" width="120" height="60" as="geometry" />
        </mxCell>
        <mxCell id="N1VjgT0BrK08xfT6yM9E-56" value="" style="edgeStyle=orthogonalEdgeStyle;rounded=0;orthogonalLoop=1;jettySize=auto;html=1;" edge="1" parent="1" source="N1VjgT0BrK08xfT6yM9E-35" target="N1VjgT0BrK08xfT6yM9E-55">
          <mxGeometry relative="1" as="geometry">
            <Array as="points">
              <mxPoint x="260" y="1470" />
            </Array>
          </mxGeometry>
        </mxCell>
        <mxCell id="N1VjgT0BrK08xfT6yM9E-58" value="" style="edgeStyle=orthogonalEdgeStyle;rounded=0;orthogonalLoop=1;jettySize=auto;html=1;" edge="1" parent="1" source="N1VjgT0BrK08xfT6yM9E-35" target="N1VjgT0BrK08xfT6yM9E-57">
          <mxGeometry relative="1" as="geometry">
            <Array as="points">
              <mxPoint x="260" y="1570" />
            </Array>
          </mxGeometry>
        </mxCell>
        <mxCell id="N1VjgT0BrK08xfT6yM9E-35" value="Communication" style="whiteSpace=wrap;html=1;rounded=1;" vertex="1" parent="1">
          <mxGeometry x="200" y="1360" width="120" height="60" as="geometry" />
        </mxCell>
        <mxCell id="N1VjgT0BrK08xfT6yM9E-40" value="" style="edgeStyle=orthogonalEdgeStyle;rounded=0;orthogonalLoop=1;jettySize=auto;html=1;" edge="1" parent="1" source="N1VjgT0BrK08xfT6yM9E-37" target="N1VjgT0BrK08xfT6yM9E-39">
          <mxGeometry relative="1" as="geometry">
            <Array as="points">
              <mxPoint x="260" y="1050" />
            </Array>
          </mxGeometry>
        </mxCell>
        <mxCell id="N1VjgT0BrK08xfT6yM9E-42" value="" style="edgeStyle=orthogonalEdgeStyle;rounded=0;orthogonalLoop=1;jettySize=auto;html=1;" edge="1" parent="1" source="N1VjgT0BrK08xfT6yM9E-37" target="N1VjgT0BrK08xfT6yM9E-41">
          <mxGeometry relative="1" as="geometry">
            <Array as="points">
              <mxPoint x="260" y="1130" />
            </Array>
          </mxGeometry>
        </mxCell>
        <mxCell id="N1VjgT0BrK08xfT6yM9E-44" value="" style="edgeStyle=orthogonalEdgeStyle;rounded=0;orthogonalLoop=1;jettySize=auto;html=1;" edge="1" parent="1" source="N1VjgT0BrK08xfT6yM9E-37" target="N1VjgT0BrK08xfT6yM9E-43">
          <mxGeometry relative="1" as="geometry">
            <Array as="points">
              <mxPoint x="260" y="1210" />
            </Array>
          </mxGeometry>
        </mxCell>
        <mxCell id="N1VjgT0BrK08xfT6yM9E-46" value="" style="edgeStyle=orthogonalEdgeStyle;rounded=0;orthogonalLoop=1;jettySize=auto;html=1;" edge="1" parent="1" source="N1VjgT0BrK08xfT6yM9E-37" target="N1VjgT0BrK08xfT6yM9E-45">
          <mxGeometry relative="1" as="geometry">
            <Array as="points">
              <mxPoint x="260" y="1290" />
            </Array>
          </mxGeometry>
        </mxCell>
        <mxCell id="N1VjgT0BrK08xfT6yM9E-37" value="Electrical System" style="whiteSpace=wrap;html=1;rounded=1;" vertex="1" parent="1">
          <mxGeometry x="200" y="940" width="120" height="60" as="geometry" />
        </mxCell>
        <mxCell id="N1VjgT0BrK08xfT6yM9E-39" value="PCBs" style="whiteSpace=wrap;html=1;rounded=1;" vertex="1" parent="1">
          <mxGeometry x="300" y="1020" width="120" height="60" as="geometry" />
        </mxCell>
        <mxCell id="N1VjgT0BrK08xfT6yM9E-41" value="Batteries" style="whiteSpace=wrap;html=1;rounded=1;" vertex="1" parent="1">
          <mxGeometry x="300" y="1100" width="120" height="60" as="geometry" />
        </mxCell>
        <mxCell id="N1VjgT0BrK08xfT6yM9E-43" value="Power Distribution" style="whiteSpace=wrap;html=1;rounded=1;" vertex="1" parent="1">
          <mxGeometry x="300" y="1180" width="120" height="60" as="geometry" />
        </mxCell>
        <mxCell id="N1VjgT0BrK08xfT6yM9E-45" value="Safety Circuits" style="whiteSpace=wrap;html=1;rounded=1;" vertex="1" parent="1">
          <mxGeometry x="300" y="1260" width="120" height="60" as="geometry" />
        </mxCell>
        <mxCell id="N1VjgT0BrK08xfT6yM9E-50" value="Motor Drivers" style="whiteSpace=wrap;html=1;rounded=1;" vertex="1" parent="1">
          <mxGeometry x="-130" y="1190" width="120" height="60" as="geometry" />
        </mxCell>
        <mxCell id="N1VjgT0BrK08xfT6yM9E-52" value="Sensors" style="whiteSpace=wrap;html=1;rounded=1;" vertex="1" parent="1">
          <mxGeometry x="-130" y="1270" width="120" height="60" as="geometry" />
        </mxCell>
        <mxCell id="N1VjgT0BrK08xfT6yM9E-48" value="Microcontrollers" style="whiteSpace=wrap;html=1;rounded=1;" vertex="1" parent="1">
          <mxGeometry x="-130" y="1109" width="120" height="60" as="geometry" />
        </mxCell>
        <mxCell id="N1VjgT0BrK08xfT6yM9E-55" value="ROSCAN" style="whiteSpace=wrap;html=1;rounded=1;" vertex="1" parent="1">
          <mxGeometry x="310" y="1440" width="120" height="60" as="geometry" />
        </mxCell>
        <mxCell id="N1VjgT0BrK08xfT6yM9E-57" value="Wide Range Communication" style="whiteSpace=wrap;html=1;rounded=1;" vertex="1" parent="1">
          <mxGeometry x="310" y="1520" width="120" height="60" as="geometry" />
        </mxCell>
        <mxCell id="N1VjgT0BrK08xfT6yM9E-68" value="" style="edgeStyle=orthogonalEdgeStyle;rounded=0;orthogonalLoop=1;jettySize=auto;html=1;" edge="1" parent="1" source="N1VjgT0BrK08xfT6yM9E-59" target="N1VjgT0BrK08xfT6yM9E-67">
          <mxGeometry relative="1" as="geometry">
            <Array as="points">
              <mxPoint x="620" y="690" />
            </Array>
          </mxGeometry>
        </mxCell>
        <mxCell id="N1VjgT0BrK08xfT6yM9E-70" value="" style="edgeStyle=orthogonalEdgeStyle;rounded=0;orthogonalLoop=1;jettySize=auto;html=1;" edge="1" parent="1" source="N1VjgT0BrK08xfT6yM9E-59" target="N1VjgT0BrK08xfT6yM9E-69">
          <mxGeometry relative="1" as="geometry">
            <Array as="points">
              <mxPoint x="620" y="770" />
            </Array>
          </mxGeometry>
        </mxCell>
        <mxCell id="N1VjgT0BrK08xfT6yM9E-72" value="" style="edgeStyle=orthogonalEdgeStyle;rounded=0;orthogonalLoop=1;jettySize=auto;html=1;" edge="1" parent="1" source="N1VjgT0BrK08xfT6yM9E-59" target="N1VjgT0BrK08xfT6yM9E-71">
          <mxGeometry relative="1" as="geometry">
            <Array as="points">
              <mxPoint x="620" y="610" />
            </Array>
          </mxGeometry>
        </mxCell>
        <mxCell id="N1VjgT0BrK08xfT6yM9E-59" value="Drive Mechanism" style="rounded=1;whiteSpace=wrap;html=1;" vertex="1" parent="1">
          <mxGeometry x="560" y="500" width="120" height="60" as="geometry" />
        </mxCell>
        <mxCell id="N1VjgT0BrK08xfT6yM9E-61" value="Links" style="rounded=1;whiteSpace=wrap;html=1;" vertex="1" parent="1">
          <mxGeometry x="560" y="1320" width="120" height="60" as="geometry" />
        </mxCell>
        <mxCell id="N1VjgT0BrK08xfT6yM9E-80" value="" style="edgeStyle=orthogonalEdgeStyle;rounded=0;orthogonalLoop=1;jettySize=auto;html=1;" edge="1" parent="1" source="N1VjgT0BrK08xfT6yM9E-63" target="N1VjgT0BrK08xfT6yM9E-79">
          <mxGeometry relative="1" as="geometry">
            <Array as="points">
              <mxPoint x="620" y="1190" />
            </Array>
          </mxGeometry>
        </mxCell>
        <mxCell id="N1VjgT0BrK08xfT6yM9E-82" value="" style="edgeStyle=orthogonalEdgeStyle;rounded=0;orthogonalLoop=1;jettySize=auto;html=1;" edge="1" parent="1" source="N1VjgT0BrK08xfT6yM9E-63" target="N1VjgT0BrK08xfT6yM9E-81">
          <mxGeometry relative="1" as="geometry">
            <Array as="points">
              <mxPoint x="620" y="1270" />
            </Array>
          </mxGeometry>
        </mxCell>
        <mxCell id="N1VjgT0BrK08xfT6yM9E-63" value="End Effector" style="rounded=1;whiteSpace=wrap;html=1;" vertex="1" parent="1">
          <mxGeometry x="560" y="1080" width="120" height="60" as="geometry" />
        </mxCell>
        <mxCell id="N1VjgT0BrK08xfT6yM9E-75" value="" style="edgeStyle=orthogonalEdgeStyle;rounded=0;orthogonalLoop=1;jettySize=auto;html=1;" edge="1" parent="1" source="N1VjgT0BrK08xfT6yM9E-65" target="N1VjgT0BrK08xfT6yM9E-74">
          <mxGeometry relative="1" as="geometry">
            <Array as="points">
              <mxPoint x="620" y="940" />
            </Array>
          </mxGeometry>
        </mxCell>
        <mxCell id="N1VjgT0BrK08xfT6yM9E-77" value="" style="edgeStyle=orthogonalEdgeStyle;rounded=0;orthogonalLoop=1;jettySize=auto;html=1;" edge="1" parent="1" source="N1VjgT0BrK08xfT6yM9E-65" target="N1VjgT0BrK08xfT6yM9E-76">
          <mxGeometry relative="1" as="geometry">
            <Array as="points">
              <mxPoint x="620" y="1020" />
            </Array>
          </mxGeometry>
        </mxCell>
        <mxCell id="N1VjgT0BrK08xfT6yM9E-65" value="Perception" style="rounded=1;whiteSpace=wrap;html=1;" vertex="1" parent="1">
          <mxGeometry x="560" y="840" width="120" height="60" as="geometry" />
        </mxCell>
        <mxCell id="N1VjgT0BrK08xfT6yM9E-67" value="Belt Drive" style="rounded=1;whiteSpace=wrap;html=1;" vertex="1" parent="1">
          <mxGeometry x="650" y="660" width="120" height="60" as="geometry" />
        </mxCell>
        <mxCell id="N1VjgT0BrK08xfT6yM9E-69" value="Direct Drive" style="rounded=1;whiteSpace=wrap;html=1;" vertex="1" parent="1">
          <mxGeometry x="650" y="740" width="120" height="60" as="geometry" />
        </mxCell>
        <mxCell id="N1VjgT0BrK08xfT6yM9E-71" value="Cycloidal Drive" style="rounded=1;whiteSpace=wrap;html=1;" vertex="1" parent="1">
          <mxGeometry x="650" y="580" width="120" height="60" as="geometry" />
        </mxCell>
        <mxCell id="N1VjgT0BrK08xfT6yM9E-74" value="Mono-Cameras" style="rounded=1;whiteSpace=wrap;html=1;" vertex="1" parent="1">
          <mxGeometry x="650" y="910" width="120" height="60" as="geometry" />
        </mxCell>
        <mxCell id="N1VjgT0BrK08xfT6yM9E-76" value="Stereo Vision" style="rounded=1;whiteSpace=wrap;html=1;" vertex="1" parent="1">
          <mxGeometry x="650" y="990" width="120" height="60" as="geometry" />
        </mxCell>
        <mxCell id="N1VjgT0BrK08xfT6yM9E-79" value="Gripper" style="rounded=1;whiteSpace=wrap;html=1;" vertex="1" parent="1">
          <mxGeometry x="650" y="1160" width="120" height="60" as="geometry" />
        </mxCell>
        <mxCell id="N1VjgT0BrK08xfT6yM9E-81" value="Sand Collector" style="rounded=1;whiteSpace=wrap;html=1;fillColor=#a20025;fontColor=#ffffff;strokeColor=#6F0000;" vertex="1" parent="1">
          <mxGeometry x="650" y="1240" width="120" height="60" as="geometry" />
        </mxCell>
        <mxCell id="N1VjgT0BrK08xfT6yM9E-83" value="Mechanical Design" style="rounded=1;whiteSpace=wrap;html=1;" vertex="1" parent="1">
          <mxGeometry x="880" y="470" width="120" height="60" as="geometry" />
        </mxCell>
        <mxCell id="N1VjgT0BrK08xfT6yM9E-85" value="Autonomous System" style="rounded=1;whiteSpace=wrap;html=1;" vertex="1" parent="1">
          <mxGeometry x="880" y="550" width="120" height="60" as="geometry" />
        </mxCell>
        <mxCell id="N1VjgT0BrK08xfT6yM9E-87" value="Electrical System" style="rounded=1;whiteSpace=wrap;html=1;" vertex="1" parent="1">
          <mxGeometry x="880" y="630" width="120" height="60" as="geometry" />
        </mxCell>
        <mxCell id="N1VjgT0BrK08xfT6yM9E-89" value="Embedded System" style="rounded=1;whiteSpace=wrap;html=1;" vertex="1" parent="1">
          <mxGeometry x="880" y="710" width="120" height="60" as="geometry" />
        </mxCell>
        <mxCell id="N1VjgT0BrK08xfT6yM9E-93" value="Communication" style="rounded=1;whiteSpace=wrap;html=1;" vertex="1" parent="1">
          <mxGeometry x="880" y="790" width="120" height="60" as="geometry" />
        </mxCell>
      </root>
    </mxGraphModel>
  </diagram>
</mxfile>
